<?xml version="1.0" encoding="utf-8" ?>
<svg baseProfile="tiny" height="512" version="1.2" width="1024" xmlns="http://www.w3.org/2000/svg" xmlns:ev="http://www.w3.org/2001/xml-events" xmlns:xlink="http://www.w3.org/1999/xlink"><defs /><line stroke="#81d4fa" stroke-linecap="round" stroke-width="14" x1="637" x2="743.2518" y1="377" y2="348.5299" /><line stroke="#4fc3f7" stroke-linecap="round" stroke-width="8" x1="676" x2="901.0607" y1="438" y2="377.6952" /><line stroke="#4fc3f7" stroke-linecap="round" stroke-width="10" x1="80" x2="166.9333" y1="71" y2="47.7063" /><line stroke="#29b6f6" stroke-linecap="round" stroke-width="9" x1="-120" x2="112.7881" y1="296" y2="233.6246" /><line stroke="#29b6f6" stroke-linecap="round" stroke-width="13" x1="102" x2="318.3674" y1="182" y2="124.0245" /><line stroke="#0288d1" stroke-linecap="round" stroke-width="13" x1="217" x2="364.7867" y1="240" y2="200.4007" /><line stroke="#4fc3f7" stroke-linecap="round" stroke-width="11" x1="893" x2="1129.6518" y1="484" y2="420.5893" /><line stroke="#039be5" stroke-linecap="round" stroke-width="10" x1="996" x2="1248.1066" y1="252" y2="184.4482" /><line stroke="#4fc3f7" stroke-linecap="round" stroke-width="9" x1="582" x2="844.7318" y1="145" y2="74.6012" /><line stroke="#039be5" stroke-linecap="round" stroke-width="7" x1="462" x2="621.3778" y1="378" y2="335.2949" /><line stroke="#81d4fa" stroke-linecap="round" stroke-width="14" x1="1007" x2="1100.6948" y1="482" y2="456.8946" /><line stroke="#039be5" stroke-linecap="round" stroke-width="8" x1="499" x2="600.4222" y1="453" y2="425.824" /><line stroke="#0288d1" stroke-linecap="round" stroke-width="6" x1="281" x2="509.9244" y1="503" y2="441.6599" /><line stroke="#81d4fa" stroke-linecap="round" stroke-width="9" x1="106" x2="277.9348" y1="149" y2="102.9302" /><line stroke="#0288d1" stroke-linecap="round" stroke-width="9" x1="949" x2="1176.9585" y1="100" y2="38.9187" /><line stroke="#81d4fa" stroke-linecap="round" stroke-width="8" x1="-48" x2="235.9822" y1="250" y2="173.9072" /><line stroke="#29b6f6" stroke-linecap="round" stroke-width="13" x1="959" x2="1089.4" y1="466" y2="431.0594" /><line stroke="#81d4fa" stroke-linecap="round" stroke-width="10" x1="-16" x2="170.4237" y1="297" y2="247.0479" /><line stroke="#039be5" stroke-linecap="round" stroke-width="10" x1="922" x2="1071.7185" y1="428" y2="387.883" /><line stroke="#81d4fa" stroke-linecap="round" stroke-width="11" x1="743" x2="975.7881" y1="277" y2="214.6246" /><line stroke="#4fc3f7" stroke-linecap="round" stroke-width="8" x1="662" x2="850.3555" y1="281" y2="230.5303" /><line stroke="#4fc3f7" stroke-linecap="round" stroke-width="8" x1="630" x2="902.3911" y1="196" y2="123.013" /><line stroke="#0288d1" stroke-linecap="round" stroke-width="11" x1="452" x2="583.3659" y1="38" y2="2.8006" /><line stroke="#0288d1" stroke-linecap="round" stroke-width="8" x1="475" x2="575.4563" y1="239" y2="212.0828" /><line stroke="#29b6f6" stroke-linecap="round" stroke-width="9" x1="87" x2="266.6622" y1="276" y2="227.8597" /><line stroke="#81d4fa" stroke-linecap="round" stroke-width="14" x1="460" x2="664.7763" y1="184" y2="129.1304" /><line stroke="#0288d1" stroke-linecap="round" stroke-width="11" x1="-54" x2="137.2533" y1="461" y2="409.7538" /><line stroke="#29b6f6" stroke-linecap="round" stroke-width="12" x1="289" x2="115.2201" y1="16" y2="24.7486" /><line stroke="#039be5" stroke-linecap="round" stroke-width="14" x1="52" x2="-25.7418" y1="387" y2="652.8669" /><line stroke="#4fc3f7" stroke-linecap="round" stroke-width="11" x1="-109" x2="-190.4515" y1="8" y2="38.572" /><circle cx="751" cy="19" fill="#29b6f6" r="18" /><circle cx="307" cy="282" fill="#81d4fa" r="12" /><circle cx="347" cy="303" fill="#4fc3f7" r="17" /><circle cx="398" cy="231" fill="#4fc3f7" r="18" /><circle cx="632" cy="172" fill="#29b6f6" r="11" /><circle cx="469" cy="385" fill="#039be5" r="16" /><circle cx="689" cy="219" fill="#0288d1" r="9" /><circle cx="242" cy="489" fill="#0288d1" r="19" /><circle cx="948" cy="347" fill="#4fc3f7" r="21" /><circle cx="426" cy="457" fill="#81d4fa" r="9" /><g stroke="#29b6f6" stroke-width="2" transform="rotate(186.34099395999834,143,337)"><line x1="131" x2="155" y1="337" y2="337" /><line x1="143" x2="143" y1="325" y2="349" /></g><g stroke="#29b6f6" stroke-width="2" transform="rotate(110.41730927191558,305,152)"><line x1="297" x2="313" y1="152" y2="152" /><line x1="305" x2="305" y1="144" y2="160" /></g><g stroke="#29b6f6" stroke-width="2" transform="rotate(164.36139320057933,757,188)"><line x1="742" x2="772" y1="188" y2="188" /><line x1="757" x2="757" y1="173" y2="203" /></g><g stroke="#81d4fa" stroke-width="2" transform="rotate(309.9907782769612,788,148)"><line x1="780" x2="796" y1="148" y2="148" /><line x1="788" x2="788" y1="140" y2="156" /></g><g stroke="#29b6f6" stroke-width="2" transform="rotate(185.036557929494,923,430)"><line x1="911" x2="935" y1="430" y2="430" /><line x1="923" x2="923" y1="418" y2="442" /></g><g stroke="#29b6f6" stroke-width="2" transform="rotate(226.4709854683364,363,471)"><line x1="353" x2="373" y1="471" y2="471" /><line x1="363" x2="363" y1="461" y2="481" /></g><circle cx="268.0" cy="272.0" fill="#4fc3f7" r="1.5" /><circle cx="267.1141" cy="278.7293" fill="#4fc3f7" r="1.5" /><circle cx="264.5167" cy="285.0" fill="#4fc3f7" r="1.5" /><circle cx="260.3848" cy="290.3848" fill="#4fc3f7" r="1.5" /><circle cx="255.0" cy="294.5167" fill="#4fc3f7" r="1.5" /><circle cx="248.7293" cy="297.1141" fill="#4fc3f7" r="1.5" /><circle cx="242.0" cy="298.0" fill="#4fc3f7" r="1.5" /><circle cx="235.2707" cy="297.1141" fill="#4fc3f7" r="1.5" /><circle cx="229.0" cy="294.5167" fill="#4fc3f7" r="1.5" /><circle cx="223.6152" cy="290.3848" fill="#4fc3f7" r="1.5" /><circle cx="219.4833" cy="285.0" fill="#4fc3f7" r="1.5" /><circle cx="216.8859" cy="278.7293" fill="#4fc3f7" r="1.5" /><circle cx="216.0" cy="272.0" fill="#4fc3f7" r="1.5" /><circle cx="216.8859" cy="265.2707" fill="#4fc3f7" r="1.5" /><circle cx="219.4833" cy="259.0" fill="#4fc3f7" r="1.5" /><circle cx="223.6152" cy="253.6152" fill="#4fc3f7" r="1.5" /><circle cx="229.0" cy="249.4833" fill="#4fc3f7" r="1.5" /><circle cx="235.2707" cy="246.8859" fill="#4fc3f7" r="1.5" /><circle cx="242.0" cy="246.0" fill="#4fc3f7" r="1.5" /><circle cx="248.7293" cy="246.8859" fill="#4fc3f7" r="1.5" /><circle cx="255.0" cy="249.4833" fill="#4fc3f7" r="1.5" /><circle cx="260.3848" cy="253.6152" fill="#4fc3f7" r="1.5" /><circle cx="264.5167" cy="259.0" fill="#4fc3f7" r="1.5" /><circle cx="267.1141" cy="265.2707" fill="#4fc3f7" r="1.5" /><circle cx="327.0" cy="385.0" fill="#29b6f6" r="1.5" /><circle cx="326.2504" cy="390.694" fill="#29b6f6" r="1.5" /><circle cx="324.0526" cy="396.0" fill="#29b6f6" r="1.5" /><circle cx="320.5563" cy="400.5563" fill="#29b6f6" r="1.5" /><circle cx="316.0" cy="404.0526" fill="#29b6f6" r="1.5" /><circle cx="310.694" cy="406.2504" fill="#29b6f6" r="1.5" /><circle cx="305.0" cy="407.0" fill="#29b6f6" r="1.5" /><circle cx="299.306" cy="406.2504" fill="#29b6f6" r="1.5" /><circle cx="294.0" cy="404.0526" fill="#29b6f6" r="1.5" /><circle cx="289.4437" cy="400.5563" fill="#29b6f6" r="1.5" /><circle cx="285.9474" cy="396.0" fill="#29b6f6" r="1.5" /><circle cx="283.7496" cy="390.694" fill="#29b6f6" r="1.5" /><circle cx="283.0" cy="385.0" fill="#29b6f6" r="1.5" /><circle cx="283.7496" cy="379.306" fill="#29b6f6" r="1.5" /><circle cx="285.9474" cy="374.0" fill="#29b6f6" r="1.5" /><circle cx="289.4437" cy="369.4437" fill="#29b6f6" r="1.5" /><circle cx="294.0" cy="365.9474" fill="#29b6f6" r="1.5" /><circle cx="299.306" cy="363.7496" fill="#29b6f6" r="1.5" /><circle cx="305.0" cy="363.0" fill="#29b6f6" r="1.5" /><circle cx="310.694" cy="363.7496" fill="#29b6f6" r="1.5" /><circle cx="316.0" cy="365.9474" fill="#29b6f6" r="1.5" /><circle cx="320.5563" cy="369.4437" fill="#29b6f6" r="1.5" /><circle cx="324.0526" cy="374.0" fill="#29b6f6" r="1.5" /><circle cx="326.2504" cy="379.306" fill="#29b6f6" r="1.5" /><circle cx="415.0" cy="67.0" fill="#81d4fa" r="1.5" /><circle cx="414.2163" cy="72.9528" fill="#81d4fa" r="1.5" /><circle cx="411.9186" cy="78.5" fill="#81d4fa" r="1.5" /><circle cx="408.2635" cy="83.2635" fill="#81d4fa" r="1.5" /><circle cx="403.5" cy="86.9186" fill="#81d4fa" r="1.5" /><circle cx="397.9528" cy="89.2163" fill="#81d4fa" r="1.5" /><circle cx="392.0" cy="90.0" fill="#81d4fa" r="1.5" /><circle cx="386.0472" cy="89.2163" fill="#81d4fa" r="1.5" /><circle cx="380.5" cy="86.9186" fill="#81d4fa" r="1.5" /><circle cx="375.7365" cy="83.2635" fill="#81d4fa" r="1.5" /><circle cx="372.0814" cy="78.5" fill="#81d4fa" r="1.5" /><circle cx="369.7837" cy="72.9528" fill="#81d4fa" r="1.5" /><circle cx="369.0" cy="67.0" fill="#81d4fa" r="1.5" /><circle cx="369.7837" cy="61.0472" fill="#81d4fa" r="1.5" /><circle cx="372.0814" cy="55.5" fill="#81d4fa" r="1.5" /><circle cx="375.7365" cy="50.7365" fill="#81d4fa" r="1.5" /><circle cx="380.5" cy="47.0814" fill="#81d4fa" r="1.5" /><circle cx="386.0472" cy="44.7837" fill="#81d4fa" r="1.5" /><circle cx="392.0" cy="44.0" fill="#81d4fa" r="1.5" /><circle cx="397.9528" cy="44.7837" fill="#81d4fa" r="1.5" /><circle cx="403.5" cy="47.0814" fill="#81d4fa" r="1.5" /><circle cx="408.2635" cy="50.7365" fill="#81d4fa" r="1.5" /><circle cx="411.9186" cy="55.5" fill="#81d4fa" r="1.5" /><circle cx="414.2163" cy="61.0472" fill="#81d4fa" r="1.5" /><circle cx="537.0" cy="438.0" fill="#039be5" r="1.5" /><circle cx="536.08" cy="444.9881" fill="#039be5" r="1.5" /><circle cx="533.3827" cy="451.5" fill="#039be5" r="1.5" /><circle cx="529.0919" cy="457.0919" fill="#039be5" r="1.5" /><circle cx="523.5" cy="461.3827" fill="#039be5" r="1.5" /><circle cx="516.9881" cy="464.08" fill="#039be5" r="1.5" /><circle cx="510.0" cy="465.0" fill="#039be5" r="1.5" /><circle cx="503.0119" cy="464.08" fill="#039be5" r="1.5" /><circle cx="496.5" cy="461.3827" fill="#039be5" r="1.5" /><circle cx="490.9081" cy="457.0919" fill="#039be5" r="1.5" /><circle cx="486.6173" cy="451.5" fill="#039be5" r="1.5" /><circle cx="483.92" cy="444.9881" fill="#039be5" r="1.5" /><circle cx="483.0" cy="438.0" fill="#039be5" r="1.5" /><circle cx="483.92" cy="431.0119" fill="#039be5" r="1.5" /><circle cx="486.6173" cy="424.5" fill="#039be5" r="1.5" /><circle cx="490.9081" cy="418.9081" fill="#039be5" r="1.5" /><circle cx="496.5" cy="414.6173" fill="#039be5" r="1.5" /><circle cx="503.0119" cy="411.92" fill="#039be5" r="1.5" /><circle cx="510.0" cy="411.0" fill="#039be5" r="1.5" /><circle cx="516.9881" cy="411.92" fill="#039be5" r="1.5" /><circle cx="523.5" cy="414.6173" fill="#039be5" r="1.5" /><circle cx="529.0919" cy="418.9081" fill="#039be5" r="1.5" /><circle cx="533.3827" cy="424.5" fill="#039be5" r="1.5" /><circle cx="536.08" cy="431.0119" fill="#039be5" r="1.5" /></svg>